<?xml version="1.0" encoding="utf-8"?>
<!-- Generator: Adobe Illustrator 25.2.0, SVG Export Plug-In . SVG Version: 6.00 Build 0)  -->
<svg version="1.1" id="Layer_1" xmlns="http://www.w3.org/2000/svg" xmlns:xlink="http://www.w3.org/1999/xlink" x="0px" y="0px"
	 viewBox="0 0 24 24" style="enable-background:new 0 0 24 24;" xml:space="preserve">
<g>
	<path class="st0" d="M15,22.8H9c-5.4,0-7.8-2.3-7.8-7.8v-2c0-0.4,0.3-0.8,0.8-0.8s0.8,0.3,0.8,0.8v2c0,4.6,1.6,6.2,6.2,6.2h6
		c4.6,0,6.2-1.6,6.2-6.2V9c0-4.6-1.6-6.2-6.2-6.2H9C4.4,2.8,2.8,4.4,2.8,9c0,0.4-0.3,0.8-0.8,0.8S1.2,9.4,1.2,9
		c0-5.4,2.3-7.8,7.8-7.8h6c5.4,0,7.8,2.3,7.8,7.8v6C22.8,20.4,20.4,22.8,15,22.8z"/>
</g>
<g>
	<path class="st0" d="M7.3,15.2c-0.2,0-0.3-0.1-0.5-0.2c-0.3-0.3-0.4-0.7-0.1-1.1l2.4-3.1c0.3-0.4,0.7-0.6,1.2-0.7
		c0.5-0.1,0.9,0.1,1.3,0.4l1.8,1.4c0.1,0.1,0.3,0.1,0.4,0l2.3-3c0.3-0.3,0.7-0.4,1.1-0.1c0.3,0.3,0.4,0.7,0.1,1.1l-2.3,3
		c-0.6,0.8-1.7,0.9-2.5,0.3l-1.8-1.4c-0.1-0.1-0.1-0.1-0.2,0c0,0-0.1,0-0.2,0.1l-2.4,3.1C7.8,15.1,7.6,15.2,7.3,15.2z"/>
</g>
</svg>
