<?xml version="1.0" encoding="utf-8"?>
<!-- Generator: Adobe Illustrator 25.2.0, SVG Export Plug-In . SVG Version: 6.00 Build 0)  -->
<svg version="1.1" id="Layer_1" xmlns="http://www.w3.org/2000/svg" xmlns:xlink="http://www.w3.org/1999/xlink" x="0px" y="0px"
	 viewBox="0 0 24 24" style="enable-background:new 0 0 24 24;" xml:space="preserve">
<path class="st0" d="M16.2,2H7.8C4.2,2,2,4.2,2,7.8v8.4C2,19.8,4.2,22,7.8,22h8.4c3.6,0,5.8-2.2,5.8-5.8V7.8C22,4.2,19.8,2,16.2,2z
	 M17.3,10l-2.3,3c-0.3,0.4-0.7,0.6-1.2,0.7c-0.5,0.1-0.9-0.1-1.3-0.4l-1.8-1.4c-0.1-0.1-0.1-0.1-0.2-0.1c0,0-0.1,0-0.2,0.1l-2.4,3.1
	c-0.1,0.2-0.4,0.3-0.6,0.3c-0.2,0-0.3,0-0.5-0.2c-0.3-0.2-0.4-0.7-0.1-1l2.4-3.1c0.3-0.4,0.7-0.6,1.2-0.7c0.5-0.1,0.9,0.1,1.3,0.4
	l1.8,1.4c0.1,0.1,0.1,0.1,0.2,0c0,0,0.1,0,0.2-0.1l2.3-3c0.2-0.3,0.7-0.4,1.1-0.1C17.5,9.2,17.5,9.6,17.3,10z"/>
</svg>
