<svg xmlns="http://www.w3.org/2000/svg" viewBox="0 0 19.99 20"><defs><style>.cls-1{fill:#631ffe;}</style></defs><g id="Layer_2" data-name="Layer 2"><g id="Layer_1-2" data-name="Layer 1"><path class="cls-1" d="M14.19,0H5.81C2.17,0,0,2.17,0,5.81v8.37C0,17.83,2.17,20,5.81,20h8.37C17.82,20,20,17.83,20,14.19V5.81C20,2.17,17.83,0,14.19,0Zm1.07,8-2.31,3a1.71,1.71,0,0,1-1.17.66,1.73,1.73,0,0,1-1.3-.36L8.65,9.8a.22.22,0,0,0-.19-.05.22.22,0,0,0-.17.1L5.91,12.94a.75.75,0,0,1-.59.29.74.74,0,0,1-.46-.16A.75.75,0,0,1,4.72,12L7.1,8.93a1.75,1.75,0,0,1,2.47-.31l1.83,1.44a.21.21,0,0,0,.19,0,.22.22,0,0,0,.17-.1l2.31-3a.74.74,0,0,1,1-.13A.76.76,0,0,1,15.26,8Z"/></g></g></svg>