<?xml version="1.0" encoding="utf-8"?>
<!-- Generator: Adobe Illustrator 25.2.0, SVG Export Plug-In . SVG Version: 6.00 Build 0)  -->
<svg version="1.1" id="Layer_1" xmlns="http://www.w3.org/2000/svg" xmlns:xlink="http://www.w3.org/1999/xlink" x="0px" y="0px"
	 viewBox="0 0 24 24" style="enable-background:new 0 0 24 24;" xml:space="preserve">
<g>
	<path class="st0" d="M12.2,19.3c-0.4,0-0.8-0.3-0.8-0.8v-2.1c0-0.4,0.3-0.8,0.8-0.8s0.8,0.3,0.8,0.8v2.1
		C12.9,19,12.6,19.3,12.2,19.3z"/>
</g>
<g>
	<path class="st0" d="M17.9,22.8H6.4V21c0-1.5,1.2-2.8,2.8-2.8h6c1.5,0,2.8,1.2,2.8,2.8V22.8z M7.9,21.2h8.5V21
		c0-0.7-0.6-1.2-1.2-1.2h-6c-0.7,0-1.2,0.6-1.2,1.2V21.2z"/>
</g>
<g>
	<path class="st0" d="M18.2,22.8h-12c-0.4,0-0.8-0.3-0.8-0.8s0.3-0.8,0.8-0.8h12c0.4,0,0.8,0.3,0.8,0.8S18.6,22.8,18.2,22.8z"/>
</g>
<g>
	<path class="st0" d="M12,16.8c-0.4,0-0.8-0.3-0.8-0.8s0.3-0.8,0.8-0.8h0.1c3.4-0.1,6.1-2.9,6.1-6.2V6c0-1.8-1.5-3.2-3.2-3.2H9
		C7.2,2.8,5.8,4.2,5.8,6v3c0,2.2,1.2,4.3,3.1,5.4c0.4,0.2,0.5,0.7,0.3,1c-0.2,0.4-0.7,0.5-1,0.3c-2.4-1.4-3.9-4-3.9-6.7V6
		c0-2.6,2.1-4.8,4.8-4.8h6c2.6,0,4.8,2.1,4.8,4.8v3c0,4.2-3.4,7.7-7.6,7.8H12z"/>
</g>
<g>
	<path class="st0" d="M5.5,12.4c-0.1,0-0.2,0-0.2,0C4.4,12.1,3.7,11.6,3,11C1.9,9.7,1.3,8.3,1.3,6.9c0-1.8,1.4-3.2,3.2-3.2h0.6
		c0.3,0,0.5,0.1,0.6,0.3C6,4.2,6,4.4,5.9,4.7C5.7,5,5.6,5.4,5.6,5.9v3c0,0.9,0.2,1.7,0.5,2.5c0.1,0.3,0.1,0.6-0.1,0.8
		C5.9,12.3,5.7,12.4,5.5,12.4z M4.2,5.1C3.4,5.3,2.8,6,2.8,6.9C2.8,7.9,3.2,9,4.1,10c0,0,0.1,0.1,0.1,0.1C4.2,9.7,4.1,9.3,4.1,8.9
		v-3C4.1,5.6,4.2,5.4,4.2,5.1z"/>
</g>
<g>
	<path class="st0" d="M18.5,12.4c-0.2,0-0.4-0.1-0.6-0.2c-0.2-0.2-0.2-0.5-0.1-0.8c0.3-0.8,0.5-1.6,0.5-2.5v-3
		c0-0.4-0.1-0.8-0.2-1.2C18,4.4,18,4.2,18.2,3.9s0.4-0.3,0.6-0.3h0.6c1.8,0,3.2,1.4,3.2,3.2c0,1.5-0.6,2.9-1.7,4.1
		c-0.7,0.7-1.4,1.2-2.3,1.4C18.7,12.4,18.6,12.4,18.5,12.4z M19.8,5.1c0,0.2,0.1,0.5,0.1,0.7v3c0,0.4,0,0.8-0.1,1.2
		c0.1-0.1,0.1-0.1,0.2-0.2c0.8-0.9,1.3-2,1.3-3.1C21.2,6,20.6,5.3,19.8,5.1z"/>
</g>
</svg>
