<?xml version="1.0" encoding="utf-8"?>
<!-- Generator: Adobe Illustrator 25.2.0, SVG Export Plug-In . SVG Version: 6.00 Build 0)  -->
<svg version="1.1" id="Layer_1" xmlns="http://www.w3.org/2000/svg" xmlns:xlink="http://www.w3.org/1999/xlink" x="0px" y="0px"
	 viewBox="0 0 24 24" style="enable-background:new 0 0 24 24;" xml:space="preserve">
<path class="st0" d="M11.2,18.3H9c-1.1,0-2,0.9-2,2v0.2H6c-0.4,0-0.8,0.3-0.8,0.8S5.6,22,6,22h12c0.4,0,0.8-0.3,0.8-0.8
	s-0.3-0.8-0.8-0.8h-1v-0.2c0-1.1-0.9-2-2-2h-2.2V16c-0.2,0-0.5,0-0.8,0s-0.5,0-0.8,0V18.3z"/>
<path class="st0" d="M18.5,11.6c0.7-0.2,1.2-0.7,1.7-1.1c0.9-1,1.5-2.3,1.5-3.7s-1.1-2.6-2.6-2.6h-0.6C17.9,2.9,16.6,2,15,2H9
	C7.4,2,6.1,2.9,5.4,4.2H4.8c-1.4,0-2.6,1.1-2.6,2.6s0.6,2.7,1.5,3.7c0.5,0.5,1,0.9,1.7,1.1c1,2.6,3.5,4.4,6.5,4.4
	S17.4,14.2,18.5,11.6z M14.8,8.4l-0.6,0.8c-0.1,0.1-0.2,0.3-0.2,0.5l0.1,1c0,0.6-0.4,0.9-0.9,0.7L12.3,11c-0.1-0.1-0.4-0.1-0.5,0
	l-0.9,0.4c-0.6,0.2-1-0.1-0.9-0.7l0.1-1c0-0.1-0.1-0.4-0.2-0.5L9.2,8.4C8.8,8,8.9,7.5,9.5,7.3l0.9-0.2c0.1,0,0.3-0.2,0.4-0.3L11.4,6
	c0.3-0.5,0.9-0.5,1.2,0l0.5,0.8c0.1,0.1,0.3,0.3,0.4,0.3l0.9,0.2C15.1,7.5,15.2,8,14.8,8.4z"/>
</svg>
