<?xml version="1.0" encoding="utf-8"?>
<!-- Generator: Adobe Illustrator 25.2.0, SVG Export Plug-In . SVG Version: 6.00 Build 0)  -->
<svg version="1.1" id="Layer_1" xmlns="http://www.w3.org/2000/svg" xmlns:xlink="http://www.w3.org/1999/xlink" x="0px" y="0px"
	 viewBox="0 0 24 24" style="enable-background:new 0 0 24 24;" xml:space="preserve">
<path class="st0" d="M12,2C6.5,2,2,6.5,2,12s4.5,10,10,10s10-4.5,10-10S17.5,2,12,2z M16.4,15.6c-0.1,0.2-0.4,0.4-0.7,0.4
	c-0.1,0-0.3,0-0.4-0.1L12.2,14c-0.8-0.5-1.3-1.5-1.3-2.4V7.5c0-0.4,0.3-0.8,0.8-0.8s0.8,0.3,0.8,0.8v4.1c0,0.4,0.3,0.9,0.6,1.1
	l3.1,1.9C16.5,14.8,16.6,15.2,16.4,15.6z"/>
</svg>
