<?xml version="1.0" encoding="utf-8"?>
<!-- Generator: Adobe Illustrator 25.2.0, SVG Export Plug-In . SVG Version: 6.00 Build 0)  -->
<svg version="1.1" id="Layer_1" xmlns="http://www.w3.org/2000/svg" xmlns:xlink="http://www.w3.org/1999/xlink" x="0px" y="0px"
	 viewBox="0 0 24 24" style="enable-background:new 0 0 24 24;" xml:space="preserve">
<path class="st0" d="M12,22.8C6.1,22.8,1.2,17.9,1.2,12S6.1,1.2,12,1.2S22.8,6.1,22.8,12S17.9,22.8,12,22.8z M12,2.8
	c-5.1,0-9.2,4.2-9.2,9.2s4.2,9.2,9.2,9.2s9.2-4.1,9.2-9.2S17.1,2.8,12,2.8z"/>
<path class="st0" d="M15.7,15.9c-0.1,0-0.3,0-0.4-0.1L12.2,14c-0.8-0.5-1.3-1.5-1.3-2.4V7.5c0-0.4,0.3-0.8,0.8-0.8s0.8,0.3,0.8,0.8
	v4.1c0,0.4,0.3,0.9,0.6,1.1l3.1,1.8c0.4,0.2,0.5,0.7,0.3,1C16.2,15.8,16,15.9,15.7,15.9z"/>
</svg>
