<?xml version="1.0" encoding="utf-8"?>
<!-- Generator: Adobe Illustrator 25.2.0, SVG Export Plug-In . SVG Version: 6.00 Build 0)  -->
<svg version="1.1" id="Layer_1" xmlns="http://www.w3.org/2000/svg" xmlns:xlink="http://www.w3.org/1999/xlink" x="0px" y="0px"
	 viewBox="0 0 24 24" style="enable-background:new 0 0 24 24;" xml:space="preserve">
<path class="st0" d="M16.8,3.6V2c0-0.4-0.3-0.8-0.8-0.8S15.3,1.6,15.3,2v1.5H8.8V2c0-0.4-0.3-0.8-0.8-0.8S7.3,1.6,7.3,2v1.6
	C4.6,3.8,3.2,5.4,3,7.8c0,0.3,0.2,0.5,0.5,0.5h16.9c0.3,0,0.5-0.2,0.5-0.5C20.8,5.4,19.5,3.8,16.8,3.6z"/>
<path class="st0" d="M20,9.8H4c-0.5,0-1,0.4-1,1V17c0,3,1.5,5,5,5h8c3.5,0,5-2,5-5v-6.2C21,10.3,20.5,9.8,20,9.8z M9.2,18.2
	c-0.1,0-0.1,0.1-0.1,0.1c-0.1,0-0.1,0.1-0.2,0.1c-0.1,0-0.1,0.1-0.2,0.1c-0.1,0-0.1,0-0.2,0c-0.1,0-0.3,0-0.4-0.1
	c-0.1,0-0.2-0.1-0.3-0.2c-0.2-0.2-0.3-0.5-0.3-0.7s0.1-0.5,0.3-0.7c0.1-0.1,0.2-0.2,0.3-0.2c0.2-0.1,0.4-0.1,0.6-0.1
	c0.1,0,0.1,0,0.2,0.1c0.1,0,0.1,0.1,0.2,0.1c0,0,0.1,0.1,0.1,0.1c0.2,0.2,0.3,0.4,0.3,0.7S9.4,18,9.2,18.2z M9.2,14.7
	C9,14.9,8.8,15,8.5,15S8,14.9,7.8,14.7c-0.2-0.2-0.3-0.4-0.3-0.7c0-0.3,0.1-0.5,0.3-0.7c0.3-0.3,0.7-0.4,1.1-0.2
	c0.1,0.1,0.2,0.1,0.3,0.2c0.2,0.2,0.3,0.5,0.3,0.7C9.5,14.3,9.4,14.5,9.2,14.7z M12.7,18.2c-0.2,0.2-0.4,0.3-0.7,0.3
	s-0.5-0.1-0.7-0.3C11.1,18,11,17.8,11,17.5s0.1-0.5,0.3-0.7c0.4-0.4,1.1-0.4,1.4,0c0.2,0.2,0.3,0.4,0.3,0.7S12.9,18,12.7,18.2z
	 M12.7,14.7c-0.1,0-0.1,0.1-0.1,0.1c-0.1,0-0.1,0.1-0.2,0.1c-0.1,0-0.1,0.1-0.2,0.1c-0.1,0-0.1,0-0.2,0c-0.3,0-0.5-0.1-0.7-0.3
	C11.1,14.5,11,14.3,11,14c0-0.3,0.1-0.5,0.3-0.7c0.1-0.1,0.2-0.2,0.3-0.2c0.4-0.2,0.8-0.1,1.1,0.2c0.2,0.2,0.3,0.5,0.3,0.7
	C13,14.3,12.9,14.5,12.7,14.7z M16.2,18.2c-0.2,0.2-0.4,0.3-0.7,0.3s-0.5-0.1-0.7-0.3c-0.2-0.2-0.3-0.5-0.3-0.7s0.1-0.5,0.3-0.7
	c0.4-0.4,1.1-0.4,1.4,0c0.2,0.2,0.3,0.4,0.3,0.7S16.4,18,16.2,18.2z M16.2,14.7c0,0-0.1,0.1-0.1,0.1c-0.1,0-0.1,0.1-0.2,0.1
	c-0.1,0-0.1,0.1-0.2,0.1c-0.1,0-0.1,0-0.2,0c-0.3,0-0.5-0.1-0.7-0.3c-0.2-0.2-0.3-0.4-0.3-0.7c0-0.3,0.1-0.5,0.3-0.7
	c0.1-0.1,0.2-0.2,0.3-0.2c0.2-0.1,0.4-0.1,0.6-0.1c0.1,0,0.1,0,0.2,0.1c0.1,0,0.1,0.1,0.2,0.1c0.1,0,0.1,0.1,0.1,0.1
	c0.2,0.2,0.3,0.5,0.3,0.7C16.5,14.3,16.4,14.5,16.2,14.7z"/>
</svg>
