<?xml version="1.0" encoding="utf-8"?>
<!-- Generator: Adobe Illustrator 25.2.0, SVG Export Plug-In . SVG Version: 6.00 Build 0)  -->
<svg version="1.1" id="Layer_1" xmlns="http://www.w3.org/2000/svg" xmlns:xlink="http://www.w3.org/1999/xlink" x="0px" y="0px"
	 viewBox="0 0 24 24" style="enable-background:new 0 0 24 24;" xml:space="preserve">
<g>
	<path class="st0" d="M8,5.8C7.6,5.8,7.2,5.4,7.2,5V2c0-0.4,0.3-0.8,0.8-0.8S8.8,1.6,8.8,2v3C8.8,5.4,8.4,5.8,8,5.8z"/>
</g>
<g>
	<path class="st0" d="M16,5.8c-0.4,0-0.8-0.3-0.8-0.8V2c0-0.4,0.3-0.8,0.8-0.8s0.8,0.3,0.8,0.8v3C16.8,5.4,16.4,5.8,16,5.8z"/>
</g>
<g>
	<path class="st0" d="M20.5,9.8h-17c-0.4,0-0.8-0.3-0.8-0.8s0.3-0.8,0.8-0.8h17c0.4,0,0.8,0.3,0.8,0.8S20.9,9.8,20.5,9.8z"/>
</g>
<g>
	<path class="st0" d="M16,22.8H8c-3.7,0-5.8-2.1-5.8-5.8c0-0.4,0.3-0.8,0.8-0.8s0.8,0.3,0.8,0.8c0,2.9,1.4,4.2,4.2,4.2h8
		c2.9,0,4.2-1.4,4.2-4.2V8.5c0-2.9-1.4-4.2-4.2-4.2H8c-2.9,0-4.2,1.4-4.2,4.2V13c0,0.4-0.3,0.8-0.8,0.8S2.2,13.4,2.2,13V8.5
		c0-3.7,2.1-5.8,5.8-5.8h8c3.7,0,5.8,2.1,5.8,5.8V17C21.8,20.7,19.7,22.8,16,22.8z"/>
</g>
<g>
	<path class="st0" d="M15.7,14.7c-0.6,0-1-0.4-1-1s0.4-1,1-1h0c0.6,0,1,0.4,1,1S16.3,14.7,15.7,14.7z"/>
</g>
<g>
	<path class="st0" d="M15.7,17.7c-0.6,0-1-0.4-1-1s0.4-1,1-1h0c0.6,0,1,0.4,1,1S16.3,17.7,15.7,17.7z"/>
</g>
<g>
	<path class="st0" d="M12,14.7c-0.6,0-1-0.4-1-1s0.4-1,1-1h0c0.6,0,1,0.4,1,1S12.6,14.7,12,14.7z"/>
</g>
<g>
	<path class="st0" d="M12,17.7c-0.6,0-1-0.4-1-1s0.4-1,1-1h0c0.6,0,1,0.4,1,1S12.6,17.7,12,17.7z"/>
</g>
<g>
	<path class="st0" d="M8.3,14.7c-0.6,0-1-0.4-1-1s0.4-1,1-1h0c0.6,0,1,0.4,1,1S8.9,14.7,8.3,14.7z"/>
</g>
<g>
	<path class="st0" d="M8.3,17.7c-0.6,0-1-0.4-1-1s0.4-1,1-1h0c0.6,0,1,0.4,1,1S8.9,17.7,8.3,17.7z"/>
</g>
</svg>
