<?xml version="1.0" encoding="utf-8"?>
<!-- Generator: Adobe Illustrator 25.2.0, SVG Export Plug-In . SVG Version: 6.00 Build 0)  -->
<svg version="1.1" id="Layer_1" xmlns="http://www.w3.org/2000/svg" xmlns:xlink="http://www.w3.org/1999/xlink" x="0px" y="0px"
	 viewBox="0 0 24 24" style="enable-background:new 0 0 24 24;" xml:space="preserve">
<path class="st0" d="M8,5.8C7.6,5.8,7.2,5.4,7.2,5V2c0-0.4,0.3-0.8,0.8-0.8S8.8,1.6,8.8,2v3C8.8,5.4,8.4,5.8,8,5.8z"/>
<path class="st0" d="M16,5.8c-0.4,0-0.8-0.3-0.8-0.8V2c0-0.4,0.3-0.8,0.8-0.8s0.8,0.3,0.8,0.8v3C16.8,5.4,16.4,5.8,16,5.8z"/>
<path class="st0" d="M8.5,14.5c-0.1,0-0.3,0-0.4-0.1c-0.1-0.1-0.2-0.1-0.3-0.2c-0.2-0.2-0.3-0.4-0.3-0.7c0-0.1,0-0.3,0.1-0.4
	c0.1-0.1,0.1-0.2,0.2-0.3c0.1-0.1,0.2-0.2,0.3-0.2c0.4-0.1,0.8-0.1,1.1,0.2c0.2,0.2,0.3,0.4,0.3,0.7c0,0.1,0,0.1,0,0.2
	c0,0.1,0,0.1-0.1,0.2c0,0.1-0.1,0.1-0.1,0.2c0,0.1-0.1,0.1-0.1,0.2C9,14.4,8.8,14.5,8.5,14.5z"/>
<path class="st0" d="M12,14.5c-0.1,0-0.3,0-0.4-0.1c-0.1-0.1-0.2-0.1-0.3-0.2C11.1,14,11,13.8,11,13.5c0-0.1,0-0.3,0.1-0.4
	s0.1-0.2,0.2-0.3c0.1-0.1,0.2-0.2,0.3-0.2c0.4-0.2,0.8-0.1,1.1,0.2c0.2,0.2,0.3,0.4,0.3,0.7c0,0.1,0,0.1,0,0.2c0,0.1,0,0.1-0.1,0.2
	c0,0.1-0.1,0.1-0.1,0.2c0,0.1-0.1,0.1-0.1,0.1C12.5,14.4,12.3,14.5,12,14.5z"/>
<path class="st0" d="M15.5,14.5c-0.1,0-0.3,0-0.4-0.1c-0.1-0.1-0.2-0.1-0.3-0.2c0-0.1-0.1-0.1-0.1-0.1c0-0.1-0.1-0.1-0.1-0.2
	c0-0.1-0.1-0.1-0.1-0.2c0-0.1,0-0.1,0-0.2c0-0.3,0.1-0.5,0.3-0.7c0.1-0.1,0.2-0.2,0.3-0.2c0.4-0.2,0.8-0.1,1.1,0.2
	c0.2,0.2,0.3,0.4,0.3,0.7c0,0.1,0,0.1,0,0.2c0,0.1,0,0.1-0.1,0.2c0,0.1,0,0.1-0.1,0.2c0,0.1-0.1,0.1-0.1,0.1
	C16,14.4,15.8,14.5,15.5,14.5z"/>
<path class="st0" d="M8.5,18c-0.1,0-0.3,0-0.4-0.1s-0.2-0.1-0.3-0.2c-0.2-0.2-0.3-0.5-0.3-0.7c0-0.1,0-0.3,0.1-0.4
	c0.1-0.1,0.1-0.2,0.2-0.3c0.4-0.4,1.1-0.4,1.4,0c0.2,0.2,0.3,0.4,0.3,0.7c0,0.3-0.1,0.5-0.3,0.7C9,17.9,8.8,18,8.5,18z"/>
<path class="st0" d="M12,18c-0.3,0-0.5-0.1-0.7-0.3C11.1,17.5,11,17.3,11,17c0-0.1,0-0.3,0.1-0.4c0.1-0.1,0.1-0.2,0.2-0.3
	c0.4-0.4,1.1-0.4,1.4,0c0.1,0.1,0.2,0.2,0.2,0.3C13,16.7,13,16.9,13,17c0,0.3-0.1,0.5-0.3,0.7C12.5,17.9,12.3,18,12,18z"/>
<path class="st0" d="M15.5,18c-0.3,0-0.5-0.1-0.7-0.3c-0.1-0.1-0.2-0.2-0.2-0.3c-0.1-0.1-0.1-0.2-0.1-0.4c0-0.1,0-0.3,0.1-0.4
	c0.1-0.1,0.1-0.2,0.2-0.3c0.2-0.2,0.6-0.3,0.9-0.3c0.1,0,0.1,0,0.2,0.1c0.1,0,0.1,0,0.2,0.1c0.1,0,0.1,0.1,0.1,0.1
	c0.2,0.2,0.3,0.5,0.3,0.7c0,0.3-0.1,0.5-0.3,0.7C16,17.9,15.8,18,15.5,18z"/>
<path class="st0" d="M20.5,9.8h-17c-0.4,0-0.8-0.3-0.8-0.8s0.3-0.8,0.8-0.8h17c0.4,0,0.8,0.3,0.8,0.8S20.9,9.8,20.5,9.8z"/>
<path class="st0" d="M16,22.8H8c-3.7,0-5.8-2.1-5.8-5.8V8.5c0-3.7,2.1-5.8,5.8-5.8h8c3.6,0,5.8,2.1,5.8,5.8V17
	C21.8,20.6,19.6,22.8,16,22.8z M8,4.2c-2.9,0-4.2,1.4-4.2,4.2V17c0,2.9,1.4,4.2,4.2,4.2h8c2.9,0,4.2-1.4,4.2-4.2V8.5
	c0-2.9-1.4-4.2-4.2-4.2H8z"/>
</svg>
