<svg xmlns="http://www.w3.org/2000/svg" overflow="hidden" xmlns:xlink="http://www.w3.org/1999/xlink" viewBox="0 0 577.73 385.15"><defs><style>.cls-1{isolation:isolate;}.cls-2{fill:url(#linear-gradient);}.cls-3{opacity:0.2;mix-blend-mode:multiply;}.cls-4{fill:url(#linear-gradient-2);}.cls-5{fill:url(#linear-gradient-3);}.cls-6{fill:url(#linear-gradient-4);}.cls-7{fill:url(#linear-gradient-5);}.cls-8{opacity:0.54;}.cls-9{fill:#fff;opacity:0.5;}</style><linearGradient id="linear-gradient" x1="-40.65" y1="428.22" x2="447.48" y2="79.15" gradientUnits="userSpaceOnUse"><stop offset="0" stop-color="#eda411"/><stop offset="0.36" stop-color="#ff5b9d"/><stop offset="1" stop-color="#7c0eff"/></linearGradient><linearGradient id="linear-gradient-2" x1="-45.54" y1="421.38" x2="442.59" y2="72.31" xlink:href="#linear-gradient"/><linearGradient id="linear-gradient-3" x1="-51.85" y1="412.55" x2="436.27" y2="63.48" xlink:href="#linear-gradient"/><linearGradient id="linear-gradient-4" x1="-42.18" y1="426.07" x2="445.95" y2="77.01" xlink:href="#linear-gradient"/><linearGradient id="linear-gradient-5" x1="-32.16" y1="440.09" x2="455.97" y2="91.02" xlink:href="#linear-gradient"/></defs><g class="cls-1"><g id="Layer_2" data-name="Layer 2"><g id="OBJECTS"><rect class="cls-2" width="577.73" height="385.15"/><g class="cls-3"><path class="cls-4" d="M268.74,373.84a127.05,127.05,0,0,1-23-27.12,104.92,104.92,0,0,1-13.54-31c-2.9-10-5.6-20.28-11.42-29.08-6.85-10.34-17.65-17.74-28.77-22.87-11.47-5.29-23.87-8.18-36.24-10.48-14.34-2.67-28.77-2.78-43.3-3.22-13.43-.4-26.81-1.45-39.68-5.54a129.64,129.64,0,0,1-30.32-14.2C25.87,219.75,11.68,205.6,0,189.74V385.15H283.49A127.87,127.87,0,0,1,268.74,373.84Z"/></g><g class="cls-3"><path class="cls-5" d="M128.58,369c-4-12.63-9-25.46-17.83-35.59a75.13,75.13,0,0,0-27.81-19.58c-10.44-4.41-21.43-7.34-32.07-11.21A135.44,135.44,0,0,1,0,269.48V385.15H134.66A158.71,158.71,0,0,1,128.58,369Z"/></g><g class="cls-3"><path class="cls-6" d="M273.56,27.62a102.71,102.71,0,0,1,8.12,8.44,103.31,103.31,0,0,1,10.87,16.65c6.61,12.23,11.56,25.32,19,37.11,6.14,9.72,14.56,20.4,26.58,22.54,8.92,1.58,18-1.56,26.67-3.17,9.14-1.69,19.4-2.64,28.19,1,8.46,3.55,15.16,10.38,20.92,17.33,6.71,8.08,12.46,16.89,18.67,25.34a124,124,0,0,0,9.56,11.77,105.64,105.64,0,0,0,14.05,12c22.36,16.56,48.84,27,76.2,31.62,10.35,1.76,20.63,2.79,31.1,1.69a116.62,116.62,0,0,0,14.24-2.41V0H239.31A247.74,247.74,0,0,1,273.56,27.62Z"/></g><g class="cls-3"><path class="cls-7" d="M414.38,45.6A109.46,109.46,0,0,0,438,57.68c8.56,3,17.4,5.21,26.07,7.91,6.72,2.11,13.52,4.35,19.49,8.18a81.76,81.76,0,0,1,11.38,9c16.93,15.77,29.7,35.42,46.19,51.64,7.53,7.42,16,14.46,26.06,18.19A39.17,39.17,0,0,0,577.73,155V0H372.07A133.73,133.73,0,0,0,414.38,45.6Z"/></g><g class="cls-8"><path class="cls-9" d="M180.9,59.19a.45.45,0,0,1-.89,0,.45.45,0,0,1,.89,0Z"/><circle class="cls-9" cx="51.56" cy="91.44" r="0.44"/><path class="cls-9" d="M114.26,91.93a.44.44,0,0,1-.44.44.45.45,0,1,1,.44-.44Z"/><path class="cls-9" d="M154.22,214.15a.45.45,0,1,1-.44-.44A.44.44,0,0,1,154.22,214.15Z"/><circle class="cls-9" cx="38.86" cy="292.11" r="0.44"/><circle class="cls-9" cx="90.47" cy="168.39" r="0.44"/><path class="cls-9" d="M114.71,272.5a.45.45,0,1,1-.45-.44A.45.45,0,0,1,114.71,272.5Z"/><path class="cls-9" d="M233.12,20.44a.44.44,0,0,1-.44.44.45.45,0,0,1,0-.89A.45.45,0,0,1,233.12,20.44Z"/><circle class="cls-9" cx="319.56" cy="30.48" r="0.44"/><circle class="cls-9" cx="380.24" cy="65.65" r="0.44"/><path class="cls-9" d="M539.31,87.38a.45.45,0,0,1-.89,0,.45.45,0,0,1,.89,0Z"/><path class="cls-9" d="M490.24,129.51a.45.45,0,1,1-.44-.44A.45.45,0,0,1,490.24,129.51Z"/><path class="cls-9" d="M447.58,199.23a.45.45,0,1,1-.44-.45A.44.44,0,0,1,447.58,199.23Z"/><circle class="cls-9" cx="505.96" cy="195.51" r="0.44"/><path class="cls-9" d="M521.22,303.64a.45.45,0,1,1-.45-.45A.45.45,0,0,1,521.22,303.64Z"/><path class="cls-9" d="M493.23,349.29a.44.44,0,0,1-.44.45.45.45,0,0,1,0-.89A.44.44,0,0,1,493.23,349.29Z"/><path class="cls-9" d="M538.86,239.14a.44.44,0,1,1-.44-.44A.45.45,0,0,1,538.86,239.14Z"/><circle class="cls-9" cx="555.65" cy="335.66" r="0.44"/><circle class="cls-9" cx="269.92" cy="65.21" r="0.44"/><path class="cls-9" d="M397.35,11.92a.45.45,0,1,1-.44-.44A.45.45,0,0,1,397.35,11.92Z"/><path class="cls-9" d="M481.86,39.91a.45.45,0,1,1-.44-.45A.44.44,0,0,1,481.86,39.91Z"/><path class="cls-9" d="M549.22,172.37a.44.44,0,0,1-.44.44.43.43,0,0,1-.44-.44.44.44,0,0,1,.44-.44A.44.44,0,0,1,549.22,172.37Z"/><path class="cls-9" d="M475.34,253.79a.45.45,0,0,1-.44.45.45.45,0,1,1,.44-.45Z"/><path class="cls-9" d="M372.07,360.8a.45.45,0,1,1-.44-.44A.45.45,0,0,1,372.07,360.8Z"/><path class="cls-9" d="M296.65,372.78a.45.45,0,1,1-.45-.45A.45.45,0,0,1,296.65,372.78Z"/><circle class="cls-9" cx="441.3" cy="308.72" r="0.44"/><path class="cls-9" d="M315.4,314.55a.44.44,0,0,1-.44.44.45.45,0,1,1,.44-.44Z"/><circle class="cls-9" cx="549.67" cy="30.04" r="0.44"/><circle class="cls-9" cx="441.75" cy="77.04" r="0.44"/><circle class="cls-9" cx="231.6" cy="349.74" r="0.44"/><path class="cls-9" d="M154.66,350.62a.44.44,0,0,1-.44.45.45.45,0,0,1,0-.89A.44.44,0,0,1,154.66,350.62Z"/><path class="cls-9" d="M135.55,30.92a.45.45,0,1,1-.44-.44A.45.45,0,0,1,135.55,30.92Z"/><circle class="cls-9" cx="141.75" cy="150.51" r="0.44"/><circle class="cls-9" cx="58.74" cy="223.19" r="0.44"/><path class="cls-9" d="M86.72,339.25a.44.44,0,0,1-.44.44.44.44,0,0,1-.44-.44.44.44,0,0,1,.44-.44A.43.43,0,0,1,86.72,339.25Z"/><circle class="cls-9" cx="32.84" cy="372.33" r="0.44"/><circle class="cls-9" cx="73.4" cy="19.55" r="0.44"/><path class="cls-9" d="M29.85,155a.45.45,0,1,1-.44-.44A.44.44,0,0,1,29.85,155Z"/></g></g></g></g></svg>