<svg overflow="hidden" xmlns="http://www.w3.org/2000/svg" xmlns:xlink="http://www.w3.org/1999/xlink" viewBox="0 0 800.06 800.11"><defs><style>.cls-1{isolation:isolate;}.cls-2{fill:#f56b38;}.cls-16,.cls-17,.cls-21,.cls-22,.cls-24,.cls-25,.cls-27,.cls-3,.cls-9{mix-blend-mode:overlay;}.cls-3{fill:url(#linear-gradient);}.cls-16,.cls-4,.cls-5,.cls-6,.cls-7,.cls-8{fill:#fcd36c;}.cls-4{opacity:0.05;}.cls-5{opacity:0.1;}.cls-17,.cls-25,.cls-6{opacity:0.2;}.cls-12,.cls-16,.cls-21,.cls-7{opacity:0.5;}.cls-20,.cls-22,.cls-9{fill:#1b1464;}.cls-9{opacity:0.12;}.cls-10,.cls-11,.cls-12{fill:#565187;}.cls-11{opacity:0.8;}.cls-13{fill:#5a5682;}.cls-14{fill:#d4403e;}.cls-15{fill:url(#linear-gradient-2);}.cls-17,.cls-19,.cls-21,.cls-24{fill:#352c82;}.cls-18{fill:#4c4682;}.cls-22{opacity:0.52;}.cls-23{fill:#3d3c52;}.cls-24,.cls-27{opacity:0.4;}.cls-25{fill:#fff;}.cls-26{fill:#110f59;}.cls-27{fill:url(#radial-gradient);}</style><linearGradient id="linear-gradient" x1="399.05" y1="-1" x2="401.06" y2="800.11" gradientUnits="userSpaceOnUse"><stop offset="0" stop-color="#fff"/><stop offset="1" stop-color="red"/></linearGradient><linearGradient id="linear-gradient-2" x1="399.68" y1="501.11" x2="400.43" y2="801.11" gradientUnits="userSpaceOnUse"><stop offset="0" stop-color="#fff" stop-opacity="0"/><stop offset="1" stop-color="#1b1464"/></linearGradient><radialGradient id="radial-gradient" cx="400.06" cy="400.11" r="602.01" gradientUnits="userSpaceOnUse"><stop offset="0" stop-opacity="0"/><stop offset="0.89" stop-opacity="0.74"/><stop offset="1"/></radialGradient></defs><g class="cls-1"><g id="Layer_2" data-name="Layer 2"><g id="OBJECTS"><rect class="cls-2" x="0.06" y="1.11" width="800" height="799"/><rect class="cls-3" x="0.06" width="800" height="800.11"/><circle class="cls-4" cx="246.27" cy="502.11" r="246.27" transform="translate(-282.92 321.2) rotate(-45)"/><circle class="cls-5" cx="246.27" cy="502.11" r="208"/><circle class="cls-6" cx="246.27" cy="502.11" r="170"/><circle class="cls-7" cx="246.27" cy="502.11" r="145"/><circle class="cls-8" cx="246.27" cy="502.11" r="124.5"/><path class="cls-9" d="M795.72,351.83H480.39a4.29,4.29,0,0,0-2.21.6l-18.91,11.15a4.3,4.3,0,0,1-2,.59l-70.7,3.89c-5.4.3-5.5,8.22-.11,8.65l176,13.92a4.33,4.33,0,0,1,3.3,6.66h0a4.34,4.34,0,0,0,4,6.67L796,387a4.33,4.33,0,0,0,4-4.32V356.16A4.34,4.34,0,0,0,795.72,351.83Z"/><path class="cls-10" d="M586.42,227.35a1,1,0,0,1,1.05,1.71,20,20,0,0,1-1.65,1.28c-5.11,3.54-3.28,6.67-2.21,6.86a3.45,3.45,0,0,0,.87,0,1,1,0,0,1,.4,2,9.28,9.28,0,0,1-1.37.18h-.3c-4.64.07-4.42,4.71-11.44,2.05a9.66,9.66,0,0,0-3.07-.18s1.14-1.13,1.81-1.21a1.79,1.79,0,0,1,0-.29,1,1,0,0,0-.93-1,10.38,10.38,0,0,0-3.12.25c-2.43.58-6.55,1.58-8.84-.48,0,0,4.57.14,6.74-1a16.11,16.11,0,0,1,10.6-2.16,1,1,0,0,0,.73-.17,6.06,6.06,0,0,0,1.6-1.59,18.4,18.4,0,0,1,8.46-5.93Z"/><path class="cls-10" d="M528.68,203a1,1,0,0,1,1,1.71,18.26,18.26,0,0,1-1.64,1.28c-5.11,3.55-3.28,6.67-2.21,6.86a3.47,3.47,0,0,0,.87,0,1,1,0,0,1,.4,2,9.46,9.46,0,0,1-1.37.18h-.3c-4.64.07-4.42,4.71-11.45,2.05a9.59,9.59,0,0,0-3.06-.18s1.14-1.13,1.81-1.21a1.21,1.21,0,0,1,0-.29,1,1,0,0,0-.93-1,10.38,10.38,0,0,0-3.12.25c-2.42.58-6.55,1.58-8.84-.48,0,0,4.58.14,6.74-1A16.16,16.16,0,0,1,517.2,211a1,1,0,0,0,.73-.17,6.15,6.15,0,0,0,1.6-1.58,18.33,18.33,0,0,1,8.45-5.94Z"/><path class="cls-10" d="M532.1,278.85a1,1,0,0,1,.56,1.94,29.27,29.27,0,0,1-5.72,1.94c-8.68,1.94-8,7.07-6.64,7.9a20.23,20.23,0,0,0,5.13,1.14,1,1,0,0,1,.1,2,11,11,0,0,1-6.51-.37l-.4-.15c-6.18-2.39-8.4,3.82-16.23-3.4a.58.58,0,0,0-.12-.1,13.39,13.39,0,0,0-3.9-1.86,9.93,9.93,0,0,1,2.46-.66,1,1,0,0,0,.8-.54l.06-.1a1,1,0,0,0-.42-1.38,14.81,14.81,0,0,0-4.67-1.56,30.24,30.24,0,0,1-7.19-1.76,1,1,0,0,1,.67-1.92,13.91,13.91,0,0,0,4.54.58c3.43-.34,8.89-.87,15.36,3a1,1,0,0,0,.7.13,9.18,9.18,0,0,0,3.2-1.29,26.28,26.28,0,0,1,14.41-3.3A17,17,0,0,0,532.1,278.85Z"/><path class="cls-10" d="M687.09,250a1,1,0,0,1,.56,1.95,28.72,28.72,0,0,1-5.73,1.93c-8.68,2-7.95,7.08-6.63,7.9a20.13,20.13,0,0,0,5.12,1.14,1,1,0,0,1,.1,2,11,11,0,0,1-6.51-.37l-.4-.14c-6.18-2.4-8.4,3.82-16.22-3.41l-.12-.09a12.85,12.85,0,0,0-3.91-1.86,9.77,9.77,0,0,1,2.46-.67,1,1,0,0,0,.8-.53l.06-.11a1,1,0,0,0-.41-1.37,14.38,14.38,0,0,0-4.68-1.56,30.3,30.3,0,0,1-7.19-1.77,1,1,0,0,1,.67-1.92,13.68,13.68,0,0,0,4.54.58c3.43-.34,8.89-.87,15.36,3a1,1,0,0,0,.71.13,9.29,9.29,0,0,0,3.19-1.28,26.17,26.17,0,0,1,14.41-3.31A17.06,17.06,0,0,0,687.09,250Z"/><path class="cls-11" d="M393.31,179.67a1,1,0,0,1,.8,1.85c-.57.36-1.17.71-1.81,1-5.56,2.8-4.19,6.15-3.15,6.49a3.55,3.55,0,0,0,.86.08,1,1,0,0,1,.12,2,9.19,9.19,0,0,1-1.38,0l-.3,0c-4.6-.57-5,4.05-11.62.43a9.6,9.6,0,0,0-3-.61,5,5,0,0,1,2-.94,1.25,1.25,0,0,1,0-.29,1,1,0,0,0-.78-1.15,10.08,10.08,0,0,0-3.12-.19c-2.48.23-6.71.64-8.69-1.73,0,0,4.51.79,6.82,0a16.16,16.16,0,0,1,10.8-.64,1,1,0,0,0,.75-.07,6.21,6.21,0,0,0,1.8-1.34,18.35,18.35,0,0,1,9.21-4.69Z"/><path class="cls-11" d="M475.06,126a12.91,12.91,0,0,1-5.65,4c-3.67,1.28-3.09,3.47-2.47,3.76a18.11,18.11,0,0,0,3.78.24,4.43,4.43,0,0,1-4.2,1l-.18,0c-2.81-.72-3.45,2.11-7.24-.67a6.21,6.21,0,0,0-1.82-.62,3,3,0,0,1,1.29-.42,1,1,0,0,1,.34-.66,6.18,6.18,0,0,0-2.62-.67c-1.56,0-4.21-.14-5.25-1.76a11.41,11.41,0,0,0,4.23.52,10.08,10.08,0,0,1,6.61.41,1.1,1.1,0,0,0,.8,0,3.93,3.93,0,0,0,1.05-.63,11.47,11.47,0,0,1,6.08-2.17A9.16,9.16,0,0,0,475.06,126Z"/><path class="cls-11" d="M558,174.26c0-.74-1.86-.31-1.86-.31s5.68-3.12,8.31-1.74,8.79.28,8.79.28a7,7,0,0,1-2.27,1.66,1,1,0,0,0-.31,1.61,22.55,22.55,0,0,1,1.91,2.44,1,1,0,0,1-1.19,1.55,11.91,11.91,0,0,1-4.29-2.95,1,1,0,0,0-1.08-.25,4.07,4.07,0,0,1-.76.16,5.32,5.32,0,0,1-2.79-.61,1,1,0,0,0-.93.06,8.32,8.32,0,0,0-2.15,1.72,10.05,10.05,0,0,0-2.27,4.54,1,1,0,0,1-2-.06C554.52,177.55,558,174.84,558,174.26Z"/><path class="cls-10" d="M443.8,212c0-.73-1.85-.31-1.85-.31s5.67-3.11,8.3-1.74,8.8.29,8.8.29a7.33,7.33,0,0,1-2.27,1.66,1,1,0,0,0-.31,1.61,23.1,23.1,0,0,1,1.91,2.44,1,1,0,0,1-1.19,1.54,11.7,11.7,0,0,1-4.29-2.95,1,1,0,0,0-1.08-.24,4.44,4.44,0,0,1-.76.16,5.47,5.47,0,0,1-2.8-.61,1,1,0,0,0-.93.05,9.15,9.15,0,0,0-2.15,1.72,10,10,0,0,0-2.26,4.55,1,1,0,0,1-2-.06C440.31,215.34,443.82,212.62,443.8,212Z"/><path class="cls-10" d="M610.77,197.26c0-.74-1.85-.32-1.85-.32s5.68-3.11,8.3-1.74,8.8.29,8.8.29a7.06,7.06,0,0,1-2.27,1.66,1,1,0,0,0-.31,1.61,22.82,22.82,0,0,1,1.91,2.44,1,1,0,0,1-1.19,1.54,11.69,11.69,0,0,1-4.29-2.94,1,1,0,0,0-1.08-.25,4.25,4.25,0,0,1-.76.16,5.47,5.47,0,0,1-2.8-.61,1,1,0,0,0-.93.05,9.15,9.15,0,0,0-2.15,1.72,10.22,10.22,0,0,0-2.26,4.55,1,1,0,0,1-2-.06C607.28,200.55,610.79,197.84,610.77,197.26Z"/><path class="cls-10" d="M489.73,166.08a1,1,0,0,1,1,1.72c-.51.43-1.06.86-1.65,1.28-5.11,3.54-3.28,6.67-2.21,6.86a3.47,3.47,0,0,0,.87,0,1,1,0,0,1,.4,2,8.14,8.14,0,0,1-1.37.17h-.3c-4.64.08-4.42,4.71-11.45,2.06A9.59,9.59,0,0,0,472,180s1.14-1.14,1.81-1.21a2,2,0,0,1,0-.29,1,1,0,0,0-.94-1,10.06,10.06,0,0,0-3.12.25c-2.42.58-6.54,1.58-8.83-.49,0,0,4.57.14,6.73-1A16.23,16.23,0,0,1,478.25,174a1,1,0,0,0,.73-.17,6.22,6.22,0,0,0,1.6-1.59,18.32,18.32,0,0,1,8.46-5.94C489.27,166.26,489.5,166.18,489.73,166.08Z"/><path class="cls-12" d="M311.23,143.52a1,1,0,0,1,1,1.71,20,20,0,0,1-1.65,1.28c-5.11,3.55-3.28,6.67-2.21,6.86a3,3,0,0,0,.87,0,1,1,0,0,1,.4,2,8.14,8.14,0,0,1-1.37.17H308c-4.64.08-4.42,4.71-11.45,2a9.59,9.59,0,0,0-3.06-.18s1.14-1.13,1.81-1.2a2,2,0,0,1,0-.29,1,1,0,0,0-.94-1,10.44,10.44,0,0,0-3.12.26c-2.42.57-6.54,1.57-8.83-.49,0,0,4.57.14,6.73-1a16.17,16.17,0,0,1,10.61-2.15,1.11,1.11,0,0,0,.73-.17,6.39,6.39,0,0,0,1.6-1.59,18.32,18.32,0,0,1,8.46-5.94Z"/><path class="cls-12" d="M212.55,146a14.19,14.19,0,0,1-5.61,5.11c-3.82,1.92-2.88,4.23-2.17,4.46a20.75,20.75,0,0,0,4.16-.27A4.88,4.88,0,0,1,204.5,157l-.21,0c-3.17-.4-3.47,2.78-8,.29a6.62,6.62,0,0,0-2.07-.42,3.4,3.4,0,0,1,1.35-.65,1.08,1.08,0,0,1,.27-.76,6.7,6.7,0,0,0-3-.36c-1.7.16-4.61.44-6-1.19,0,0,3.1.54,4.69,0a11.12,11.12,0,0,1,7.31-.47,1,1,0,0,0,.75-.07,4.4,4.4,0,0,0,1.13-.87,12.65,12.65,0,0,1,6.34-3.23A10.13,10.13,0,0,0,212.55,146Z"/><path class="cls-12" d="M127.69,84.8a8.65,8.65,0,0,1-3.42,3.11c-2.33,1.17-1.76,2.58-1.32,2.72a12.56,12.56,0,0,0,2.53-.17,3,3,0,0,1-2.7,1.05h-.12c-1.93-.24-2.12,1.69-4.88.18a4.14,4.14,0,0,0-1.26-.26,2.06,2.06,0,0,1,.82-.39.66.66,0,0,1,.17-.47,4.24,4.24,0,0,0-1.8-.22c-1,.1-2.81.27-3.64-.72a7.5,7.5,0,0,0,2.86,0,6.72,6.72,0,0,1,4.68-.22,2.62,2.62,0,0,0,.92-.64,7.71,7.71,0,0,1,3.86-2A6.24,6.24,0,0,0,127.69,84.8Z"/><path class="cls-12" d="M265.91,106.08a12.91,12.91,0,0,1-5.65,4c-3.67,1.28-3.09,3.47-2.47,3.77a18.7,18.7,0,0,0,3.78.23,4.43,4.43,0,0,1-4.2,1l-.18,0c-2.81-.72-3.45,2.11-7.25-.66a6,6,0,0,0-1.82-.63,3.08,3.08,0,0,1,1.3-.42.94.94,0,0,1,.33-.65,6,6,0,0,0-2.61-.68c-1.56,0-4.21-.13-5.25-1.76a11.2,11.2,0,0,0,4.23.52,10.08,10.08,0,0,1,6.61.41,1.1,1.1,0,0,0,.8,0,3.94,3.94,0,0,0,1-.62,11.45,11.45,0,0,1,6.09-2.18A9.2,9.2,0,0,0,265.91,106.08Z"/><path class="cls-12" d="M341,106.75c0-.73-1.86-.31-1.86-.31s5.68-3.12,8.3-1.74,8.8.29,8.8.29a7.22,7.22,0,0,1-2.27,1.66,1,1,0,0,0-.31,1.6,21.73,21.73,0,0,1,1.91,2.45,1,1,0,0,1-1.19,1.54,11.7,11.7,0,0,1-4.29-2.95,1,1,0,0,0-1.08-.24,4.25,4.25,0,0,1-.76.16,5.47,5.47,0,0,1-2.8-.61,1,1,0,0,0-.93.05,9.15,9.15,0,0,0-2.15,1.72,10.12,10.12,0,0,0-2.26,4.55,1,1,0,0,1-2-.07C337.48,110.05,341,107.33,341,106.75Z"/><path class="cls-11" d="M313.1,190.78c0-.74-1.86-.32-1.86-.32s5.68-3.11,8.3-1.74,8.8.29,8.8.29a7.22,7.22,0,0,1-2.27,1.66,1,1,0,0,0-.31,1.61,21.87,21.87,0,0,1,1.91,2.44,1,1,0,0,1-1.19,1.54,11.58,11.58,0,0,1-4.29-2.95,1,1,0,0,0-1.08-.24,4.25,4.25,0,0,1-.76.16,5.47,5.47,0,0,1-2.8-.61,1,1,0,0,0-.93,0,9.15,9.15,0,0,0-2.15,1.72,10.12,10.12,0,0,0-2.26,4.55,1,1,0,0,1-2-.06C309.6,194.07,313.11,191.35,313.1,190.78Z"/><path class="cls-10" d="M540.31,84.65c0-.73-1.85-.31-1.85-.31s5.67-3.12,8.3-1.74,8.8.29,8.8.29a7.33,7.33,0,0,1-2.27,1.66,1,1,0,0,0-.32,1.6,23,23,0,0,1,1.92,2.45,1,1,0,0,1-1.2,1.54,11.74,11.74,0,0,1-4.28-3,1,1,0,0,0-1.08-.25,3.66,3.66,0,0,1-.76.17,5.43,5.43,0,0,1-2.8-.61,1,1,0,0,0-.93,0,8.72,8.72,0,0,0-2.15,1.72,10,10,0,0,0-2.26,4.55,1,1,0,0,1-2-.07C536.82,88,540.32,85.23,540.31,84.65Z"/><path class="cls-11" d="M396.26,151.75c0-.74-1.86-.32-1.86-.32s5.68-3.11,8.3-1.74,8.8.29,8.8.29a7.06,7.06,0,0,1-2.27,1.66,1,1,0,0,0-.31,1.61,22.82,22.82,0,0,1,1.91,2.44,1,1,0,0,1-1.19,1.55,11.82,11.82,0,0,1-4.29-3,1,1,0,0,0-1.08-.25,4.25,4.25,0,0,1-.76.16,5.37,5.37,0,0,1-2.8-.61,1,1,0,0,0-.93,0,9,9,0,0,0-2.15,1.73,10.13,10.13,0,0,0-2.26,4.54,1,1,0,0,1-2-.06C392.76,155,396.27,152.33,396.26,151.75Z"/><polygon class="cls-13" points="241.89 502.11 333.4 471.11 434.37 454.11 529.05 390.11 607.82 365.11 647.05 325.11 698.05 300.11 800.05 301.11 800.05 502.11 241.89 502.11"/><rect class="cls-14" x="0.06" y="502.11" width="800" height="298"/><rect class="cls-15" x="0.06" y="502.11" width="800" height="298"/><path class="cls-16" d="M121.77,501.91v.2a124.5,124.5,0,1,0,249,0c0-.07,0-.13,0-.2Z"/><polygon class="cls-17" points="241.89 502.11 445.16 575.11 476.24 630.11 800.05 630.11 800.05 502.11 241.89 502.11"/><polygon class="cls-18" points="419.24 552.11 513.05 449.11 599.05 406.11 649.05 352.11 728.05 348.11 800.05 301.11 800.05 552.11 419.24 552.11"/><polygon class="cls-19" points="339.26 667.11 800.05 667.11 800.05 377.61 648.55 457.11 592.05 553.11 511.84 579.11 476.24 630.11 339.26 667.11"/><polygon class="cls-20" points="142.06 800.11 349.85 734.11 423.02 734.11 503.3 699.11 564.48 587.46 640.05 545.11 695.82 496.11 738.05 426.61 768.05 344.11 771.05 301.11 800.05 226.11 800.05 800.11 142.06 800.11"/><polygon class="cls-21" points="419.24 552.11 524.05 575.15 592.05 553.11 419.24 552.11"/><polygon class="cls-17" points="339.26 667.11 477.77 720.43 530.05 699.11 573.3 667.11 339.26 667.11"/><polygon class="cls-18" points="311.54 575.15 403.56 575.15 391.24 557.11 376.43 555.12 358.69 542.11 350.24 547.85 329.28 556.81 311.54 575.15"/><polygon class="cls-17" points="311.54 575.15 423.02 599.78 403.56 575.15 311.54 575.15"/><path class="cls-22" d="M28.16,418.61h95.73A87.87,87.87,0,0,1,148,422l17.13,4.87a87.87,87.87,0,0,0,24.07,3.36h103.1L179.11,446.27a50.78,50.78,0,0,0-23.4,9.71h0a50.7,50.7,0,0,1-30.52,10.22H.06V418.61Z"/><path class="cls-23" d="M73.08,570H45c1.08-1.51,2.42-3.36,3.68-5.09.68-.92,2.65-2.39,2.29-3.47l17.88-18.32h.38l23.66,38.62h1.17L70,542.42V542l.33-.34-.33-.33h0l-.33-.32-.32.32H68.15v1.19L50.33,560.76a1.33,1.33,0,0,0-1.62.32l-5.41,5.78-.91-1.08c-.11-1.78-.32-4.91-.51-7,1.45-.24,2.54-.71,2.67-2.26a14.7,14.7,0,0,0,.05-3.31c3.66-.89,6.69-1.79,6.58-2.08s-3.25.11-6.94.76c-.55-1.25-1.73-2.13-4.21-1.72a2.5,2.5,0,0,0-2.13,2.51c0,.16,0,.33,0,.5-3.13.72-5.56,1.46-5.48,1.89s2.49.14,5.56-.43a17.33,17.33,0,0,0,.28,2.11,11.17,11.17,0,0,0-3.94,2.64c-3.1,3-3.5,10.65-3.5,10.65H24.29a1.48,1.48,0,1,0,0,3h.85l3.74,8.26h39.6L72.22,573h.86a1.48,1.48,0,0,0,0-3Z"/><path class="cls-24" d="M64.29,592.41H36.21c0,1.51-.09,3.36-.11,5.08,0,.93.85,2.4-.32,3.48L40,619.29h.37l52.56-38.62h1.17L40.53,620l-.31.42.08.35-.58.32h0l-.58.32-.08-.32H37.91l.88-1.19-4.16-18.25c-1.29.51-1.39-.32-1.39-.32l-1.08-5.78-1.71,1.08c-1.44,1.77-4,4.91-5.78,7,1.27.24,2,.71,1,2.26a28.66,28.66,0,0,1-2.43,3.31c3,.89,5.35,1.79,5,2.08s-3.18-.11-6.37-.77a6.51,6.51,0,0,1-5.51,1.73c-1.08-.2-1.21-1.26-.25-2.51l.39-.5c-2.6-.73-4.48-1.46-4.08-1.89s2.6-.14,5.24.43c.6-.72,1.24-1.46,1.87-2.11a3.89,3.89,0,0,1-2-2.64c-.83-3,4.47-10.65,4.47-10.65H15.5c-.82,0-1-.66-.37-1.48a3.78,3.78,0,0,1,2.59-1.48h.85l9.93-8.26H68.09l-2.44,8.26h.86c.82,0,1,.66.37,1.48A3.78,3.78,0,0,1,64.29,592.41Z"/><path class="cls-25" d="M126.46,583.2h-38a.73.73,0,0,1-.73-.73h0a.73.73,0,0,1,.73-.72h38.05a.72.72,0,0,1,.72.72h0A.73.73,0,0,1,126.46,583.2Z"/><polygon class="cls-26" points="609.54 578.75 632.89 501.55 652.54 578.75 609.54 578.75"/><polygon class="cls-26" points="541.98 736.71 565.33 659.51 584.98 736.71 541.98 736.71"/><polygon class="cls-26" points="739.43 770.97 762.78 693.77 782.43 770.97 739.43 770.97"/><polygon class="cls-26" points="460.81 800.11 484.16 744.56 503.81 800.11 460.81 800.11"/><polygon class="cls-26" points="732.84 506.93 742.68 474.41 750.95 506.93 732.84 506.93"/><polygon class="cls-26" points="727.13 446.98 736.97 414.46 745.24 446.98 727.13 446.98"/><polygon class="cls-26" points="747.11 619.98 756.95 587.46 765.22 619.98 747.11 619.98"/><polygon class="cls-26" points="647.31 726.37 657.15 693.85 665.42 726.37 647.31 726.37"/><polygon class="cls-19" points="679.2 446.98 689.04 414.46 697.31 446.98 679.2 446.98"/><polygon class="cls-19" points="569.66 566.11 579.5 533.59 587.77 566.11 569.66 566.11"/><polygon class="cls-18" points="541.39 442.87 551.23 410.35 559.5 442.87 541.39 442.87"/><polygon class="cls-18" points="572.71 426.61 579.55 403.97 585.32 426.61 572.71 426.61"/><polygon class="cls-13" points="567.96 379.8 573.12 362.76 577.45 379.8 567.96 379.8"/><polygon class="cls-13" points="658.6 319.56 663.75 302.52 668.09 319.56 658.6 319.56"/><polygon class="cls-13" points="542.5 386.42 545.58 376.22 548.18 386.42 542.5 386.42"/><polygon class="cls-13" points="424.33 458.14 427.41 447.94 430.01 458.14 424.33 458.14"/><polygon class="cls-19" points="449.26 642.87 459.1 610.35 467.38 642.87 449.26 642.87"/><polygon class="cls-19" points="655.56 454.44 660.48 438.18 664.61 454.44 655.56 454.44"/><polygon class="cls-19" points="541.39 571.76 546.31 555.5 550.44 571.76 541.39 571.76"/><polygon class="cls-19" points="485.77 620.35 490.69 604.09 494.82 620.35 485.77 620.35"/><polygon class="cls-19" points="430.08 646.37 435 630.11 439.14 646.37 430.08 646.37"/><polygon class="cls-19" points="407.21 651 411.07 638.24 414.32 651 407.21 651"/><polygon class="cls-26" points="603.9 642.87 613.74 610.35 622.01 642.87 603.9 642.87"/><rect class="cls-27" x="0.06" y="0.11" width="800" height="800"/></g></g></g></svg>