<?xml version="1.0" encoding="utf-8"?>
<!-- Generator: Adobe Illustrator 25.2.0, SVG Export Plug-In . SVG Version: 6.00 Build 0)  -->
<svg version="1.1" id="Layer_1" xmlns="http://www.w3.org/2000/svg" xmlns:xlink="http://www.w3.org/1999/xlink" x="0px" y="0px"
	 viewBox="0 0 24 24" style="enable-background:new 0 0 24 24;" xml:space="preserve">
<g>
	<path class="st0" d="M9.2,15.6c-0.2,0-0.4-0.1-0.5-0.2c-0.3-0.3-0.3-0.8,0-1.1l5.7-5.7c0.3-0.3,0.8-0.3,1.1,0s0.3,0.8,0,1.1
		l-5.7,5.7C9.6,15.5,9.4,15.6,9.2,15.6z"/>
</g>
<g>
	<path class="st0" d="M14.8,15.6c-0.2,0-0.4-0.1-0.5-0.2L8.6,9.7c-0.3-0.3-0.3-0.8,0-1.1s0.8-0.3,1.1,0l5.7,5.7
		c0.3,0.3,0.3,0.8,0,1.1C15.2,15.5,15,15.6,14.8,15.6z"/>
</g>
<g>
	<path class="st0" d="M15,22.8H9c-5.4,0-7.8-2.3-7.8-7.8V9c0-5.4,2.3-7.8,7.8-7.8h6c5.4,0,7.8,2.3,7.8,7.8v6
		C22.8,20.4,20.4,22.8,15,22.8z M9,2.8C4.4,2.8,2.8,4.4,2.8,9v6c0,4.6,1.6,6.2,6.2,6.2h6c4.6,0,6.2-1.6,6.2-6.2V9
		c0-4.6-1.6-6.2-6.2-6.2H9z"/>
</g>
</svg>
